# vtk DataFile Version 3.0
Test mesh for AppendReduce - D:\work\editOpeniGame-main\Examples\Models\AppendReduce_mesh1.vtk
ASCII
DATASET POLYDATA
POINTS 9 float
0.000000 0.000000 0.000000
1.000000 0.000000 0.000000
2.000000 0.000000 0.000000
0.000000 1.000000 0.000000
1.000000 1.000000 0.000000
2.000000 1.000000 0.000000
0.000000 2.000000 0.000000
1.000000 2.000000 0.000000
2.000000 2.000000 0.000000
POLYGONS 4 20
4 0 1 4 3
4 1 2 5 4
4 3 4 7 6
4 4 5 8 7
POINT_DATA 9
SCALARS Temperature float 1
LOOKUP_TABLE default
100.000000
200.000000
300.000000
120.000000
220.000000
320.000000
140.000000
240.000000
340.000000
SCALARS Pressure float 1
LOOKUP_TABLE default
1.000000
1.500000
2.000000
1.300000
1.800000
2.300000
1.600000
2.100000
2.600000
CELL_DATA 4
SCALARS Stress float 1
LOOKUP_TABLE default
10.000000
15.000000
20.000000
25.000000
