# vtk DataFile Version 3.0
Test mesh for AppendReduce - mesh2 (right panel)
ASCII
DATASET POLYDATA
POINTS 9 float
2.000000 0.000000 0.000000
3.000000 0.000000 0.000000
4.000000 0.000000 0.000000
2.000000 1.000000 0.000000
3.000000 1.000000 0.000000
4.000000 1.000000 0.000000
2.000000 2.000000 0.000000
3.000000 2.000000 0.000000
4.000000 2.000000 0.000000
POLYGONS 4 20
4 0 1 4 3
4 1 2 5 4
4 3 4 7 6
4 4 5 8 7
POINT_DATA 9
SCALARS Temperature float 1
LOOKUP_TABLE default
300.000000
400.000000
500.000000
320.000000
420.000000
520.000000
340.000000
440.000000
540.000000
VECTORS Velocity float
1.400000 0.500000 0.000000
1.600000 0.500000 0.000000
1.800000 0.500000 0.000000
1.400000 0.600000 0.000000
1.600000 0.600000 0.000000
1.800000 0.600000 0.000000
1.400000 0.700000 0.000000
1.600000 0.700000 0.000000
1.800000 0.700000 0.000000
CELL_DATA 4
SCALARS Stress float 1
LOOKUP_TABLE default
30.000000
35.000000
40.000000
45.000000
