# vtk DataFile Version 3.0
Extract Location connected stepped solid with 20 hexahedral cells
ASCII
DATASET UNSTRUCTURED_GRID
POINTS 80 float
0 0 0
1 0 0
2 0 0
3 0 0
4 0 0
0 1 0
1 1 0
2 1 0
3 1 0
4 1 0
0 2 0
1 2 0
2 2 0
3 2 0
4 2 0
0 3 0
1 3 0
2 3 0
3 3 0
4 3 0
0 0 1
1 0 1
2 0 1
3 0 1
4 0 1
0 1 1
1 1 1
2 1 1
3 1 1
4 1 1
0 2 1
1 2 1
2 2 1
3 2 1
4 2 1
0 3 1
1 3 1
2 3 1
3 3 1
4 3 1
0 0 2
1 0 2
2 0 2
3 0 2
4 0 2
0 1 2
1 1 2
2 1 2
3 1 2
4 1 2
0 2 2
1 2 2
2 2 2
3 2 2
4 2 2
0 3 2
1 3 2
2 3 2
3 3 2
4 3 2
0 0 3
1 0 3
2 0 3
3 0 3
4 0 3
0 1 3
1 1 3
2 1 3
3 1 3
4 1 3
0 2 3
1 2 3
2 2 3
3 2 3
4 2 3
0 3 3
1 3 3
2 3 3
3 3 3
4 3 3
CELLS 20 180
8 0 1 6 5 20 21 26 25
8 1 2 7 6 21 22 27 26
8 2 3 8 7 22 23 28 27
8 3 4 9 8 23 24 29 28
8 5 6 11 10 25 26 31 30
8 6 7 12 11 26 27 32 31
8 7 8 13 12 27 28 33 32
8 8 9 14 13 28 29 34 33
8 10 11 16 15 30 31 36 35
8 11 12 17 16 31 32 37 36
8 12 13 18 17 32 33 38 37
8 13 14 19 18 33 34 39 38
8 20 21 26 25 40 41 46 45
8 21 22 27 26 41 42 47 46
8 22 23 28 27 42 43 48 47
8 25 26 31 30 45 46 51 50
8 26 27 32 31 46 47 52 51
8 27 28 33 32 47 48 53 52
8 40 41 46 45 60 61 66 65
8 41 42 47 46 61 62 67 66
CELL_TYPES 20
12
12
12
12
12
12
12
12
12
12
12
12
12
12
12
12
12
12
12
12
POINT_DATA 80
SCALARS PointValue float 1
LOOKUP_TABLE default
0
1
2
3
4
5
6
7
8
9
10
11
12
13
14
15
16
17
18
19
20
21
22
23
24
25
26
27
28
29
30
31
32
33
34
35
36
37
38
39
40
41
42
43
44
45
46
47
48
49
50
51
52
53
54
55
56
57
58
59
60
61
62
63
64
65
66
67
68
69
70
71
72
73
74
75
76
77
78
79
VECTORS PointVector float
0 0 0
1 0 0
2 0 0
3 0 0
4 0 0
0 1 0
1 1 0
2 1 0
3 1 0
4 1 0
0 2 0
1 2 0
2 2 0
3 2 0
4 2 0
0 3 0
1 3 0
2 3 0
3 3 0
4 3 0
0 0 1
1 0 1
2 0 1
3 0 1
4 0 1
0 1 1
1 1 1
2 1 1
3 1 1
4 1 1
0 2 1
1 2 1
2 2 1
3 2 1
4 2 1
0 3 1
1 3 1
2 3 1
3 3 1
4 3 1
0 0 2
1 0 2
2 0 2
3 0 2
4 0 2
0 1 2
1 1 2
2 1 2
3 1 2
4 1 2
0 2 2
1 2 2
2 2 2
3 2 2
4 2 2
0 3 2
1 3 2
2 3 2
3 3 2
4 3 2
0 0 3
1 0 3
2 0 3
3 0 3
4 0 3
0 1 3
1 1 3
2 1 3
3 1 3
4 1 3
0 2 3
1 2 3
2 2 3
3 2 3
4 2 3
0 3 3
1 3 3
2 3 3
3 3 3
4 3 3
CELL_DATA 20
SCALARS RegionId int 1
LOOKUP_TABLE default
0
1
2
3
4
5
6
7
8
9
10
11
12
13
14
15
16
17
18
19
SCALARS CellValue float 1
LOOKUP_TABLE default
100
101
102
103
104
105
106
107
108
109
110
111
112
113
114
115
116
117
118
119
VECTORS CellVector float
0.5 0.5 0.5
1.5 0.5 0.5
2.5 0.5 0.5
3.5 0.5 0.5
0.5 1.5 0.5
1.5 1.5 0.5
2.5 1.5 0.5
3.5 1.5 0.5
0.5 2.5 0.5
1.5 2.5 0.5
2.5 2.5 0.5
3.5 2.5 0.5
0.5 0.5 1.5
1.5 0.5 1.5
2.5 0.5 1.5
0.5 1.5 1.5
1.5 1.5 1.5
2.5 1.5 1.5
0.5 0.5 2.5
1.5 0.5 2.5
